<svg width="29" height="30" viewBox="0 0 29 30" fill="none" xmlns="http://www.w3.org/2000/svg">
<mask id="mask0_1_322" style="mask-type:luminance" maskUnits="userSpaceOnUse" x="0" y="0" width="29" height="30">
<path d="M14.375 11.9167C15.007 11.9167 15.6328 11.7884 16.2167 11.5392C16.8005 11.2901 17.3311 10.9248 17.778 10.4644C18.2248 10.004 18.5793 9.45738 18.8212 8.85581C19.063 8.25423 19.1875 7.60947 19.1875 6.95833C19.1875 6.3072 19.063 5.66243 18.8212 5.06086C18.5793 4.45929 18.2248 3.91269 17.778 3.45226C17.3311 2.99184 16.8005 2.62661 16.2167 2.37743C15.6328 2.12825 15.007 2 14.375 2C13.0986 2 11.8746 2.52239 10.972 3.45226C10.0695 4.38213 9.5625 5.6433 9.5625 6.95833C9.5625 8.27336 10.0695 9.53454 10.972 10.4644C11.8746 11.3943 13.0986 11.9167 14.375 11.9167ZM2 26.65V27.5H26.75V26.65C26.75 23.4767 26.75 21.89 26.1505 20.6773C25.6232 19.6111 24.7818 18.7443 23.747 18.201C22.57 17.5833 21.03 17.5833 17.95 17.5833H10.8C7.72 17.5833 6.18 17.5833 5.003 18.201C3.96815 18.7443 3.1268 19.6111 2.5995 20.6773C2 21.89 2 23.4767 2 26.65Z" fill="white" stroke="white" stroke-width="4" stroke-linecap="round" stroke-linejoin="round"/>
</mask>
<g mask="url(#mask0_1_322)">
<path d="M-2.125 -2.25H30.875V31.75H-2.125V-2.25Z" fill="black"/>
</g>
</svg>
